<svg width="12" height="12" viewBox="0 0 12 12" fill="none" xmlns="http://www.w3.org/2000/svg">
<path d="M11.5078 4.00781C11.6641 4.00781 11.7422 3.92188 11.7422 3.75C11.7422 3.57812 11.6641 3.49219 11.5078 3.49219H10.5V3C10.5 2.57812 10.3555 2.22266 10.0664 1.93359C9.77734 1.64453 9.42188 1.5 9 1.5H8.50781V0.492188C8.50781 0.335938 8.42188 0.257812 8.25 0.257812C8.07812 0.257812 7.99219 0.335938 7.99219 0.492188V1.5H7.00781V0.492188C7.00781 0.335938 6.92188 0.257812 6.75 0.257812C6.57812 0.257812 6.49219 0.335938 6.49219 0.492188V1.5H5.50781V0.492188C5.50781 0.335938 5.42188 0.257812 5.25 0.257812C5.07812 0.257812 4.99219 0.335938 4.99219 0.492188V1.5H4.00781V0.492188C4.00781 0.335938 3.92188 0.257812 3.75 0.257812C3.57812 0.257812 3.49219 0.335938 3.49219 0.492188V1.5H3C2.57812 1.5 2.22266 1.64453 1.93359 1.93359C1.64453 2.22266 1.5 2.57812 1.5 3V3.49219H0.492188C0.335938 3.49219 0.257812 3.57812 0.257812 3.75C0.257812 3.92188 0.335938 4.00781 0.492188 4.00781H1.5V4.99219H0.492188C0.335938 4.99219 0.257812 5.07812 0.257812 5.25C0.257812 5.42188 0.335938 5.50781 0.492188 5.50781H1.5V6.49219H0.492188C0.335938 6.49219 0.257812 6.57812 0.257812 6.75C0.257812 6.92188 0.335938 7.00781 0.492188 7.00781H1.5V7.99219H0.492188C0.335938 7.99219 0.257812 8.07812 0.257812 8.25C0.257812 8.42188 0.335938 8.50781 0.492188 8.50781H1.5V9C1.5 9.42188 1.64453 9.77734 1.93359 10.0664C2.22266 10.3555 2.57812 10.5 3 10.5H3.49219V11.5078C3.49219 11.6641 3.57812 11.7422 3.75 11.7422C3.92188 11.7422 4.00781 11.6641 4.00781 11.5078V10.5H4.99219V11.5078C4.99219 11.6641 5.07812 11.7422 5.25 11.7422C5.42188 11.7422 5.50781 11.6641 5.50781 11.5078V10.5H6.49219V11.5078C6.49219 11.6641 6.57812 11.7422 6.75 11.7422C6.92188 11.7422 7.00781 11.6641 7.00781 11.5078V10.5H7.99219V11.5078C7.99219 11.6641 8.07812 11.7422 8.25 11.7422C8.42188 11.7422 8.50781 11.6641 8.50781 11.5078V10.5H9C9.42188 10.5 9.77734 10.3555 10.0664 10.0664C10.3555 9.77734 10.5 9.42188 10.5 9V8.50781H11.5078C11.6641 8.50781 11.7422 8.42188 11.7422 8.25C11.7422 8.07812 11.6641 7.99219 11.5078 7.99219H10.5V7.00781H11.5078C11.6641 7.00781 11.7422 6.92188 11.7422 6.75C11.7422 6.57812 11.6641 6.49219 11.5078 6.49219H10.5V5.50781H11.5078C11.6641 5.50781 11.7422 5.42188 11.7422 5.25C11.7422 5.07812 11.6641 4.99219 11.5078 4.99219H10.5V4.00781H11.5078ZM9.49219 9C9.49219 9.32812 9.32812 9.49219 9 9.49219H3C2.67188 9.49219 2.50781 9.32812 2.50781 9V3C2.50781 2.67188 2.67188 2.50781 3 2.50781H9C9.32812 2.50781 9.49219 2.67188 9.49219 3V9ZM7.99219 3.49219H4.00781C3.66406 3.49219 3.49219 3.66406 3.49219 4.00781V7.99219C3.49219 8.33594 3.66406 8.50781 4.00781 8.50781H7.99219C8.33594 8.50781 8.50781 8.33594 8.50781 7.99219V4.00781C8.50781 3.66406 8.33594 3.49219 7.99219 3.49219ZM7.5 7.5H4.5V4.5H7.5V7.5Z" fill="#8DB9E2"/>
</svg>
