<svg width="16" height="16" viewBox="0 0 16 16" fill="none" xmlns="http://www.w3.org/2000/svg">
<path d="M11.667 12C11.4781 12 11.3199 11.936 11.1923 11.808C11.0643 11.6804 11.0003 11.5222 11.0003 11.3333V4.66667C11.0003 4.47778 11.0643 4.31933 11.1923 4.19133C11.3199 4.06378 11.4781 4 11.667 4C11.8559 4 12.0141 4.06378 12.1417 4.19133C12.2697 4.31933 12.3337 4.47778 12.3337 4.66667V11.3333C12.3337 11.5222 12.2697 11.6804 12.1417 11.808C12.0141 11.936 11.8559 12 11.667 12ZM4.70033 11.3167C4.4781 11.4722 4.25033 11.4833 4.01699 11.35C3.78366 11.2167 3.66699 11.0167 3.66699 10.75V5.25C3.66699 4.98333 3.78366 4.786 4.01699 4.658C4.25033 4.53044 4.4781 4.53889 4.70033 4.68333L8.83366 7.45C9.03366 7.58333 9.13366 7.76667 9.13366 8C9.13366 8.23333 9.03366 8.41667 8.83366 8.55L4.70033 11.3167Z" fill="#D0D0D0"/>
</svg>
