<svg width="16" height="16" viewBox="0 0 16 16" fill="none" xmlns="http://www.w3.org/2000/svg">
<path d="M4.33366 12C4.14477 12 3.98633 11.936 3.85833 11.808C3.73077 11.6804 3.66699 11.5222 3.66699 11.3333V4.66667C3.66699 4.47778 3.73077 4.31933 3.85833 4.19133C3.98633 4.06378 4.14477 4 4.33366 4C4.52255 4 4.68099 4.06378 4.80899 4.19133C4.93655 4.31933 5.00033 4.47778 5.00033 4.66667V11.3333C5.00033 11.5222 4.93655 11.6804 4.80899 11.808C4.68099 11.936 4.52255 12 4.33366 12ZM11.3003 11.3167L7.16699 8.55C6.96699 8.41667 6.86699 8.23333 6.86699 8C6.86699 7.76667 6.96699 7.58333 7.16699 7.45L11.3003 4.68333C11.5225 4.53889 11.7503 4.53044 11.9837 4.658C12.217 4.786 12.3337 4.98333 12.3337 5.25V10.75C12.3337 11.0167 12.217 11.2167 11.9837 11.35C11.7503 11.4833 11.5225 11.4722 11.3003 11.3167V11.3167Z" fill="#D0D0D0"/>
</svg>
