<svg width="12" height="12" viewBox="0 0 12 12" fill="none" xmlns="http://www.w3.org/2000/svg">
<path d="M10.5 2.50781H1.5C1.07812 2.50781 0.722656 2.64844 0.433594 2.92969C0.144531 3.21094 0 3.57031 0 4.00781V8.50781C0 8.77344 0.0976563 9.00391 0.292969 9.19922C0.488281 9.39453 0.726562 9.49219 1.00781 9.49219H10.9922C11.2734 9.49219 11.5117 9.39453 11.707 9.19922C11.9023 9.00391 12 8.77344 12 8.50781V4.00781C12 3.57031 11.8555 3.21094 11.5664 2.92969C11.2773 2.64844 10.9219 2.50781 10.5 2.50781ZM10.0078 8.50781V7.00781H9.49219V8.50781H9V7.00781H8.50781V8.50781H7.99219V7.00781H7.5V8.50781H6.49219V7.00781C6.49219 6.66406 6.32812 6.49219 6 6.49219C5.67188 6.49219 5.50781 6.66406 5.50781 7.00781V8.50781H4.99219V7.00781H4.5V8.50781H4.00781V7.00781H3.49219V8.50781H3V7.00781H2.50781V8.50781H1.99219V7.00781H1.5V8.50781H1.00781V4.00781C1.00781 3.66406 1.17188 3.49219 1.5 3.49219H10.5C10.8281 3.49219 10.9922 3.66406 10.9922 4.00781V8.50781H10.0078ZM2.50781 4.00781H1.99219C1.66406 4.00781 1.5 4.17188 1.5 4.5V6C1.5 6.32812 1.66406 6.49219 1.99219 6.49219H2.50781C2.83594 6.49219 3 6.32812 3 6V4.5C3 4.17188 2.83594 4.00781 2.50781 4.00781ZM4.5 4.00781H4.00781C3.66406 4.00781 3.49219 4.17188 3.49219 4.5V6C3.49219 6.32812 3.66406 6.49219 4.00781 6.49219H4.5C4.82812 6.49219 4.99219 6.32812 4.99219 6V4.5C4.99219 4.17188 4.82812 4.00781 4.5 4.00781ZM7.99219 4.00781H7.5C7.17188 4.00781 7.00781 4.17188 7.00781 4.5V6C7.00781 6.32812 7.17188 6.49219 7.5 6.49219H7.99219C8.33594 6.49219 8.50781 6.32812 8.50781 6V4.5C8.50781 4.17188 8.33594 4.00781 7.99219 4.00781ZM10.0078 4.00781H9.49219C9.16406 4.00781 9 4.17188 9 4.5V6C9 6.32812 9.16406 6.49219 9.49219 6.49219H10.0078C10.3359 6.49219 10.5 6.32812 10.5 6V4.5C10.5 4.17188 10.3359 4.00781 10.0078 4.00781Z" fill="#E5C07B"/>
</svg>
