<svg viewBox="0 0 12 12" fill="none" xmlns="http://www.w3.org/2000/svg">
<path d="M5.9975 0C2.6905 0 0 2.691 0 5.998C0 9.308 2.6905 12 5.9975 12C9.3075 12 12 9.3075 12 5.998C12 2.691 9.3075 0 5.9975 0ZM2.954 8.202C3.64071 7.99164 4.35479 7.88414 5.073 7.883C6.28 7.883 7.4715 8.189 8.519 8.768C8.5815 8.802 8.638 8.914 8.664 9.054C8.689 9.194 8.679 9.3375 8.638 9.412C8.61868 9.44744 8.59252 9.47869 8.56103 9.50394C8.52954 9.52919 8.49335 9.54794 8.45456 9.5591C8.41578 9.57026 8.37516 9.57361 8.33507 9.56896C8.29497 9.56431 8.2562 9.55175 8.221 9.532C7.4516 9.10992 6.60527 8.84667 5.7322 8.75786C4.85914 8.66905 3.97713 8.75649 3.1385 9.015C3.1 9.02745 3.05941 9.03211 3.01909 9.02872C2.97877 9.02533 2.93953 9.01395 2.90365 8.99524C2.86777 8.97653 2.83598 8.95087 2.81011 8.91976C2.78425 8.88864 2.76483 8.85269 2.753 8.814C2.6995 8.639 2.81 8.249 2.954 8.202ZM2.6925 5.992C3.46827 5.78124 4.26861 5.67448 5.0725 5.6745C6.5195 5.6745 7.956 6.0245 9.2275 6.6875C9.317 6.7325 9.3825 6.8095 9.4125 6.9035C9.42767 6.95097 9.43318 7.001 9.42871 7.05063C9.42425 7.10026 9.40989 7.1485 9.3865 7.1925C9.273 7.4145 9.14 7.564 9.0565 7.564C8.99558 7.56373 8.9356 7.54899 8.8815 7.521C7.7061 6.90734 6.39894 6.58918 5.073 6.594C4.33547 6.59252 3.60113 6.69091 2.89 6.8865C2.84256 6.89947 2.79303 6.90297 2.74424 6.89679C2.69545 6.89062 2.64835 6.8749 2.60563 6.85052C2.56292 6.82615 2.52542 6.79359 2.49529 6.75473C2.46515 6.71586 2.44297 6.67144 2.43 6.624C2.374 6.413 2.5025 6.044 2.6925 5.992ZM2.625 4.549C2.56872 4.56344 2.51014 4.5666 2.45264 4.55828C2.39513 4.54996 2.33985 4.53034 2.28997 4.50054C2.24009 4.47075 2.1966 4.43136 2.16202 4.38467C2.12744 4.33798 2.10246 4.2849 2.0885 4.2285C2.027 3.9795 2.1825 3.6905 2.4085 3.6335C3.28025 3.41878 4.17469 3.30983 5.0725 3.309C6.7975 3.309 8.4505 3.697 9.9845 4.4625C10.0899 4.51491 10.1702 4.60702 10.2077 4.7186C10.2452 4.83017 10.2368 4.95207 10.1845 5.0575C10.113 5.2015 9.958 5.3565 9.787 5.3565C9.71994 5.35625 9.65374 5.34141 9.593 5.313C8.19029 4.60932 6.64181 4.24519 5.0725 4.25C4.255 4.25 3.4315 4.3505 2.625 4.549Z" fill="#98C379"/>
</svg>
